<svg xmlns="http://www.w3.org/2000/svg" viewBox="0 0 28 28" width="28" height="28"><path fill="currentColor" d="m10.49 7.55-.42.7-2.1 3.5.86.5 1.68-2.8 1.8 2.82.84-.54-2.23-3.5-.43-.68Zm12.32 4.72-.84-.54 2.61-4 .84.54-2.61 4Zm-5.3 6.3 1.2-1.84.84.54-1.63 2.5-.43.65-.41-.65-1.6-2.5.85-.54 1.17 1.85ZM4.96 16.75l.86.52-2.4 4-.86-.52 2.4-4ZM3 14v1h1v-1H3Zm2 0h1v1H5v-1Zm2 0v1h1v-1H7Zm2 0h1v1H9v-1Zm2 0v1h1v-1h-1Zm2 0h1v1h-1v-1Zm2 0v1h1v-1h-1Zm2 0h1v1h-1v-1Zm2 0v1h1v-1h-1Zm2 0h1v1h-1v-1Zm2 0v1h1v-1h-1Zm2 0h1v1h-1v-1Z"></path></svg>