<svg xmlns="http://www.w3.org/2000/svg" viewBox="0 0 28 28" width="28" height="28"><path fill="currentColor" fill-rule="evenodd" d="M15 4.5a4.5 4.5 0 0 0 5.04 4.47 3.5 3.5 0 0 0 5.8 3.13 12 12 0 1 1-10.17-9.98c-.42.69-.67 1.5-.67 2.38ZM10 9a1 1 0 1 0 0-2 1 1 0 0 0 0 2Zm3 6a1 1 0 1 0 0-2 1 1 0 0 0 0 2Zm-3 5a1 1 0 1 1-2 0 1 1 0 0 1 2 0Zm6 2a1 1 0 1 0 0-2 1 1 0 0 0 0 2Zm5-6a1 1 0 1 1-2 0 1 1 0 0 1 2 0ZM6 15a1 1 0 1 0 0-2 1 1 0 0 0 0 2Z"></path><path fill="currentColor" d="M24 9a1 1 0 1 0 0-2 1 1 0 0 0 0 2ZM20 6a1 1 0 1 1-2 0 1 1 0 0 1 2 0ZM23 4a1 1 0 1 0 0-2 1 1 0 0 0 0 2Z"></path></svg>