<svg xmlns="http://www.w3.org/2000/svg" viewBox="0 0 28 28" width="28" height="28"><path fill="currentColor" d="M15 6H7.5C6.67 6 6 6.67 6 7.5v13c0 .83.67 1.5 1.5 1.5h13c.83 0 1.5-.67 1.5-1.5V16h1v4.5a2.5 2.5 0 0 1-2.5 2.5h-13A2.5 2.5 0 0 1 5 20.5v-13A2.5 2.5 0 0 1 7.5 5H15v1Z"></path><path fill="currentColor" d="M22.41 5.7a2 2 0 0 0-2.82 0L11 14.3V18h3.7l8.6-8.59a2 2 0 0 0 0-2.82l-.89-.88Zm-2.12.71a1 1 0 0 1 1.42 0l.88.88a1 1 0 0 1 0 1.42l-.59.58L19.7 7l.6-.59Zm1 3.59-7 7H12v-2.3l7-7 2.3 2.3Z"></path></svg>