<svg xmlns="http://www.w3.org/2000/svg" viewBox="0 0 18 18" width="18" height="18"><path fill="currentColor" d="M13.4 5.9c-.41 1.62-1.16 2.43-2.25 2.43-.52 0-1.25-.15-2.2-.45-.93-.3-1.58-.45-1.96-.45-.55 0-.98.3-1.27.9H4.66c.1-.67.36-1.24.76-1.71.4-.48.86-.72 1.4-.72.56 0 1.31.16 2.27.46.95.3 1.62.45 2.01.45.64 0 1.06-.3 1.27-.9h1.03zm0 3.87c-.41 1.62-1.16 2.43-2.25 2.43-.52 0-1.25-.15-2.2-.45-.93-.3-1.58-.46-1.96-.46-.55 0-.98.3-1.27.9H4.66c.1-.67.36-1.24.76-1.7.4-.48.86-.72 1.4-.72.56 0 1.31.15 2.27.46.95.3 1.62.44 2.01.44.64 0 1.06-.3 1.27-.9h1.03z"></path></svg>