<svg xmlns="http://www.w3.org/2000/svg" viewBox="0 0 28 28" width="28" height="28"><path fill="currentColor" fill-rule="evenodd" d="M7 6h4a1 1 0 0 1 1 1v4a1 1 0 0 1-1 1H7a1 1 0 0 1-1-1V7a1 1 0 0 1 1-1ZM5 7c0-1.1.9-2 2-2h4a2 2 0 0 1 2 2v4a2 2 0 0 1-2 2H7a2 2 0 0 1-2-2V7Zm12-1h4a1 1 0 0 1 1 1v4a1 1 0 0 1-1 1h-4a1 1 0 0 1-1-1V7a1 1 0 0 1 1-1Zm-2 1c0-1.1.9-2 2-2h4a2 2 0 0 1 2 2v4a2 2 0 0 1-2 2h-4a2 2 0 0 1-2-2V7Zm-4 9H7a1 1 0 0 0-1 1v4a1 1 0 0 0 1 1h4a1 1 0 0 0 1-1v-4a1 1 0 0 0-1-1Zm-4-1a2 2 0 0 0-2 2v4c0 1.1.9 2 2 2h4a2 2 0 0 0 2-2v-4a2 2 0 0 0-2-2H7Zm10 1h4a1 1 0 0 1 1 1v4a1 1 0 0 1-1 1h-4a1 1 0 0 1-1-1v-4a1 1 0 0 1 1-1Zm-2 1c0-1.1.9-2 2-2h4a2 2 0 0 1 2 2v4a2 2 0 0 1-2 2h-4a2 2 0 0 1-2-2v-4Z"></path></svg>