<svg xmlns="http://www.w3.org/2000/svg" class="chart-IE2DjrIR" width="100" height="100" viewBox="0 0 100 100" stroke-width="0"><g class="wrap-KEk4LUn3" style="--pie-chart-arc-fallback-color: #24B29B;"><path class="visibleContainer-KEk4LUn3" d="M50.000,15.000A35,35 0,0,1 76.506,27.143L87.865,17.347A50,50 0,0,0 50.000,0.000z"></path><path class="hoverDetector-KEk4LUn3" d="M50.000,15.000A35,35 0,0,1 76.506,27.143L87.865,17.347A50,50 0,0,0 50.000,0.000z" data-id="0_0"></path></g><g class="wrap-KEk4LUn3" style="--pie-chart-arc-fallback-color: #EBEBEB;"><path class="visibleContainer-KEk4LUn3" d="M76.506,27.143A35,35 0,1,1 50.000,15.000L50.000,0.000A50,50 0,1,0 87.865,17.347z"></path><path class="hoverDetector-KEk4LUn3" d="M76.506,27.143A35,35 0,1,1 50.000,15.000L50.000,0.000A50,50 0,1,0 87.865,17.347z" data-id="0_1"></path></g></svg>